<svg viewBox="0 0 31 30" fill="none" xmlns="http://www.w3.org/2000/svg">
<path d="M27.5409 24.2201L25.8744 9.22006C25.8365 8.87597 25.6729 8.558 25.4149 8.32713C25.157 8.09626 24.8229 7.96876 24.4767 7.96908H20.1373C20.0204 6.68823 19.429 5.49732 18.4791 4.63016C17.5292 3.763 16.2895 3.28223 15.0033 3.28223C13.7171 3.28223 12.4774 3.763 11.5275 4.63016C10.5776 5.49732 9.98618 6.68823 9.8693 7.96908H5.52985C5.18368 7.96876 4.84958 8.09626 4.59163 8.32713C4.33369 8.558 4.17007 8.87597 4.13215 9.22006L2.46563 24.2201C2.44379 24.4166 2.46366 24.6156 2.52394 24.8039C2.58421 24.9923 2.68354 25.1658 2.81543 25.3132C2.94732 25.4605 3.10881 25.5784 3.28936 25.6591C3.4699 25.7398 3.66544 25.7816 3.86321 25.7816H26.1432C26.341 25.7816 26.5366 25.7399 26.7171 25.6592C26.8977 25.5785 27.0592 25.4606 27.1911 25.3132C27.323 25.1658 27.4223 24.9923 27.4826 24.804C27.5429 24.6156 27.5628 24.4166 27.5409 24.2201ZM15.0033 4.21908C16.0406 4.22046 17.041 4.60342 17.8141 5.29499C18.5872 5.98655 19.0788 6.93838 19.1953 7.96908H10.8113C10.9277 6.93838 11.4194 5.98655 12.1924 5.29499C12.9655 4.60342 13.966 4.22046 15.0033 4.21908ZM26.4926 24.688C26.4489 24.7374 26.3951 24.7769 26.3349 24.8038C26.2746 24.8307 26.2093 24.8445 26.1434 24.8441H3.86321C3.79729 24.8441 3.73211 24.8302 3.67193 24.8033C3.61175 24.7763 3.55792 24.737 3.51396 24.6879C3.47 24.6388 3.43689 24.5809 3.41681 24.5182C3.39672 24.4554 3.3901 24.3891 3.39739 24.3235L5.06403 9.32354C5.07667 9.20886 5.13121 9.10289 5.21717 9.02594C5.30314 8.949 5.41448 8.90649 5.52985 8.90658H9.84704V12.1878C9.84704 12.3122 9.89642 12.4314 9.98433 12.5193C10.0722 12.6072 10.1915 12.6566 10.3158 12.6566C10.4401 12.6566 10.5593 12.6072 10.6472 12.5193C10.7352 12.4314 10.7845 12.3122 10.7845 12.1878V8.90658H19.222V12.1878C19.222 12.3122 19.2714 12.4314 19.3593 12.5193C19.4472 12.6072 19.5665 12.6566 19.6908 12.6566C19.8151 12.6566 19.9343 12.6072 20.0222 12.5193C20.1101 12.4314 20.1595 12.3122 20.1595 12.1878V8.90658H24.4767C24.5921 8.90649 24.7034 8.949 24.7894 9.02594C24.8754 9.10289 24.9299 9.20886 24.9425 9.32354L26.6092 24.3235C26.6168 24.3891 26.6104 24.4555 26.5903 24.5184C26.5702 24.5812 26.5369 24.639 26.4926 24.688Z"/>
</svg>
