<svg viewBox="0 0 19 18" fill="none" xmlns="http://www.w3.org/2000/svg">
<path d="M15.9518 15.5509L12.7268 12.326C13.8183 11.1308 14.3986 9.55591 14.3436 7.93829C14.2887 6.32068 13.6027 4.78882 12.4327 3.67051C11.2626 2.5522 9.70128 1.93626 8.08283 1.9545C6.46438 1.97273 4.91734 2.62368 3.77275 3.76807C2.62816 4.91246 1.97693 6.45938 1.95841 8.07783C1.93989 9.69627 2.55555 11.2577 3.67366 12.428C4.79176 13.5982 6.3235 14.2844 7.94111 14.3397C9.55871 14.395 11.1337 13.8149 12.3291 12.7237L15.5541 15.9488C15.6068 16.0015 15.6784 16.0311 15.753 16.0311C15.8276 16.0311 15.8991 16.0014 15.9519 15.9487C16.0046 15.8959 16.0342 15.8244 16.0342 15.7498C16.0342 15.6752 16.0045 15.6037 15.9518 15.5509ZM2.53468 8.15602C2.53468 7.0435 2.86458 5.95597 3.48266 5.03094C4.10075 4.10591 4.97925 3.38494 6.00709 2.9592C7.03492 2.53346 8.16592 2.42206 9.25706 2.6391C10.3482 2.85615 11.3505 3.39188 12.1372 4.17855C12.9238 4.96522 13.4596 5.9675 13.6766 7.05864C13.8936 8.14978 13.7822 9.28078 13.3565 10.3086C12.9308 11.3365 12.2098 12.215 11.2848 12.833C10.3597 13.4511 9.2722 13.781 8.15968 13.781C6.66835 13.7793 5.23858 13.1862 4.18406 12.1316C3.12953 11.0771 2.53636 9.64735 2.53468 8.15602Z" />
</svg>
